<svg id="line" height="512" viewBox="0 0 64 64" width="512" xmlns="http://www.w3.org/2000/svg"><g fill="#c4a2fc"><path d="m28 20v8.13l3-2a3 3 0 0 1 3.93.55l3.91 4.56 6.16-4.9a3 3 0 0 1 4 .22l5 5v-11.56a1 1 0 0 0 -1-1h-24a1 1 0 0 0 -1 1zm10 4a2 2 0 1 1 2 2 2 2 0 0 1 -2-2z"/><path d="m33.39 28 3.87 4.51-9.26 7.41v-9.38l4.08-2.73a1 1 0 0 1 1.31.19z"/><path d="m47.56 28 6.44 6.41v5.59a1 1 0 0 1 -1 1h-23.15l16.37-13.1a1 1 0 0 1 1.34.1z"/><path d="m20 48v-23h-7a3 3 0 0 0 -3 3v32a3 3 0 0 0 3 3h32a3 3 0 0 0 3-3v-7h-23a5 5 0 0 1 -5-5z"/><path d="m57 13h-32a3 3 0 0 0 -3 3v32a3 3 0 0 0 3 3h32a3 3 0 0 0 3-3v-32a3 3 0 0 0 -3-3zm-1 27a3 3 0 0 1 -3 3h-24a3 3 0 0 1 -3-3v-20a3 3 0 0 1 3-3h24a3 3 0 0 1 3 3z"/></g><path d="m35 1h-28a3 3 0 0 0 -3 3v44a3 3 0 0 0 3 3h27a4 4 0 0 0 4-4v-43a3 3 0 0 0 -3-3zm-29 3a1 1 0 0 1 1-1h28a1 1 0 0 1 1 1v39h-30zm28 45h-27a1 1 0 0 1 -1-1v-3h28a2 2 0 0 1 0 4z" fill="#151a6a"/><path d="m13 23h16a1 1 0 0 0 1-1v-12a1 1 0 0 0 -1-1h-16a1 1 0 0 0 -1 1v12a1 1 0 0 0 1 1zm2.85-2 7.2-5.76 4.95 3.3v2.46zm12.15-10v5.13l-4.45-3a1 1 0 0 0 -1.17.05l-8.38 6.74v-8.92z" fill="#151a6a"/><path d="m17 28a1 1 0 0 0 0 2h8a1 1 0 0 0 0-2z" fill="#151a6a"/><path d="m13 35h16a1 1 0 0 0 0-2h-16a1 1 0 0 0 0 2z" fill="#151a6a"/></svg>