<?xml version="1.0" encoding="utf-8"?>
<!-- Generator: Adobe Illustrator 23.0.2, SVG Export Plug-In . SVG Version: 6.00 Build 0)  -->
<svg version="1.1" id="Solid" xmlns="http://www.w3.org/2000/svg" xmlns:xlink="http://www.w3.org/1999/xlink" x="0px" y="0px"
	 viewBox="0 0 512 512" style="enable-background:new 0 0 512 512;" xml:space="preserve">
<path d="M280,128.6V464c0,13.3-10.7,24-24,24c-13.3,0-24-10.7-24-24V128.6l24-24L280,128.6z M239,31L95,175
	c-9.4,9.4-9.4,24.6,0,33.9s24.6,9.4,33.9,0l127-127l127,127c9.4,9.4,24.6,9.4,33.9,0s9.4-24.6,0-33.9L273,31
	C263.6,21.7,248.4,21.7,239,31C239,31,239,31,239,31z"/>
</svg>
