<?xml version="1.0" encoding="utf-8"?>
<!-- Generator: Adobe Illustrator 23.0.2, SVG Export Plug-In . SVG Version: 6.00 Build 0)  -->
<svg version="1.1" id="Layer_1" xmlns="http://www.w3.org/2000/svg" xmlns:xlink="http://www.w3.org/1999/xlink" x="0px" y="0px"
	 viewBox="0 0 435.9 543.7" style="enable-background:new 0 0 435.9 543.7;" xml:space="preserve">
<g>
	<path d="M415,11.5h-360c-23.2,0-42,18.8-42,42v436.8c0,11.2,4.4,21.8,12.3,29.7c7.9,7.9,18.5,12.3,29.7,12.3h323
		c3.1,0,5.9-1.7,7.4-4.3l37-67.2c0.7-1.2,1-2.6,1-4.1V19.9C423.4,15.2,419.7,11.5,415,11.5L415,11.5z M391.6,481.9H300
		c-4.6,0-8.4,3.8-8.4,8.4s3.8,8.4,8.4,8.4h82.3l-9.3,16.8l-318,0c-6.7,0-13.1-2.6-17.9-7.4c-4.7-4.7-7.3-11.1-7.3-17.8
		c0-13.9,11.3-25.2,25.2-25.2h345.7L391.6,481.9z M406.6,448.3H55.1c-9.5,0-18.2,3.2-25.2,8.5V53.5c0-13.9,11.3-25.2,25.2-25.2
		h351.6V448.3z"/>
	<path d="M139.1,194.7h178.4c21.6,0,39.1-17.6,39.1-39.1v-23.2c0-21.6-17.6-39.1-39.1-39.1l-178.4,0c-21.6,0-39.1,17.6-39.1,39.1
		v23.2C100,177.2,117.6,194.7,139.1,194.7L139.1,194.7z M116.8,132.4c0-12.3,10-22.3,22.3-22.3h178.4c12.3,0,22.3,10,22.3,22.3v23.2
		c0,12.3-10,22.3-22.3,22.3l-178.4,0c-12.3,0-22.3-10-22.3-22.3V132.4z"/>
</g>
</svg>
